<?xml version="1.0" encoding="utf-8"?>
<svg width="512" height="190" viewBox="0 0 512 190" xmlns="http://www.w3.org/2000/svg">
    <defs>
        <style>
        <![CDATA[
        g{fill:#4bdc84}
        ]]>
        </style>
    </defs>
    <g id="icon-logo">
      <path d="m423,1l-332,0c-50,0 -90,42 -90,95c0,52 40,93 90,93l332,0c50,0 90,-41 90,-93c0,-53 -40,-95 -90,-95zm-2,175l-328,0c-43,0 -78,-36 -78,-80c0,-45 35,-82 78,-82l328,0c43,0 78,37 78,82c0,44 -35,80 -78,80zm-284,-83c7,-5 11,-12 11,-22c0,-14 -9,-29 -30,-29l-33,0c-9,0 -15,6 -15,16l0,75c0,9 6,16 15,16l33,0c21,0 33,-12 33,-32c0,-11 -5,-20 -14,-24zm-45,-29l22,0c8,0 12,3 12,10c0,7 -4,10 -12,10l-22,0l0,-20zm24,63l-24,0l0,-23l24,0c6,0 12,2 12,11c0,8 -4,12 -12,12zm110,-71c-4,-10 -11,-16 -20,-16c-10,0 -17,6 -21,16l-27,77c-2,6 1,13 6,15c2,1 3,1 4,1c5,0 9,-3 11,-7l7,-23l38,0l8,23c1,4 6,7 10,7c2,0 3,0 4,-1c6,-2 9,-9 7,-15l-27,-77zm-33,42l11,-33c0,-1 1,-1 2,-1c0,0 0,0 1,1l11,33l-25,0zm211,-56l-22,0c-10,0 -16,6 -16,15l0,76c0,9 7,16 16,16l22,0c29,0 47,-17 49,-46c0,-4 0,-10 -1,-16c-2,-29 -19,-45 -48,-45zm26,60c-1,16 -10,24 -26,24l-15,0l0,-62l15,0c17,0 25,9 26,26c0,4 0,8 0,12zm-89,-61c-6,0 -11,5 -11,12l0,63l-35,-65c-4,-6 -9,-9 -16,-9c-10,0 -17,7 -17,18l0,78c0,6 5,12 11,12c6,0 11,-6 11,-12l0,-65l36,67c5,8 12,9 16,9c9,0 16,-7 16,-17l0,-79c0,-7 -5,-12 -11,-12z"/>
    </g>
</svg>
